<svg width="27" height="20" viewBox="0 0 27 20" fill="none" xmlns="http://www.w3.org/2000/svg">
<path d="M19.9686 7.77107C19.6912 5.00626 17.5306 3.00033 14.8266 3.00033C13.0251 3.00033 11.3757 3.87836 10.4475 5.28559C9.5278 3.86016 7.94595 3 6.17336 3C3.4697 3 1.30868 5.00593 1.0317 7.77074C1.00978 7.89286 0.919889 8.53558 1.19321 9.58372C1.58712 11.0955 2.49699 12.4706 3.82378 13.5595L10.4431 19.0001L17.1761 13.5598C18.5029 12.4706 19.4128 11.0959 19.8067 9.58372C20.08 8.53591 19.9902 7.89319 19.9686 7.77107ZM19.0953 9.43214C18.7357 10.8129 17.9022 12.0709 16.6872 13.0677L10.4475 18.1098L4.31489 13.069C3.09772 12.0702 2.26459 10.8126 1.90466 9.43181C1.64595 8.43993 1.75229 7.87962 1.75265 7.87598L1.75813 7.84255C1.99565 5.42028 3.85229 3.66191 6.17336 3.66191C7.88602 3.66191 9.39369 4.61507 10.1092 6.14905L10.4457 6.87153L10.7822 6.14905C11.4864 4.63857 13.0737 3.66224 14.8269 3.66224C17.1476 3.66224 19.0047 5.42062 19.2469 7.87433C19.2476 7.87962 19.354 8.44026 19.0953 9.43214Z" fill="#1B1A17" stroke="#1B1A17" stroke-width="0.75"/>
<path d="M22.1016 7H21.375V2.18359L19.918 2.71875V2.0625L21.9883 1.28516H22.1016V7Z" fill="#1B1A17"/>
<path d="M22.1016 7V8H23.1016V7H22.1016ZM21.375 7H20.375V8H21.375V7ZM21.375 2.18359H22.375V0.750983L21.0302 1.24491L21.375 2.18359ZM19.918 2.71875H18.918V4.15136L20.2627 3.65744L19.918 2.71875ZM19.918 2.0625L19.5665 1.12632L18.918 1.36981V2.0625H19.918ZM21.9883 1.28516V0.285156H21.8067L21.6368 0.348972L21.9883 1.28516ZM22.1016 1.28516H23.1016V0.285156H22.1016V1.28516ZM22.1016 6H21.375V8H22.1016V6ZM22.375 7V2.18359H20.375V7H22.375ZM21.0302 1.24491L19.5732 1.78006L20.2627 3.65744L21.7198 3.12228L21.0302 1.24491ZM20.918 2.71875V2.0625H18.918V2.71875H20.918ZM20.2695 2.99868L22.3398 2.22134L21.6368 0.348972L19.5665 1.12632L20.2695 2.99868ZM21.9883 2.28516H22.1016V0.285156H21.9883V2.28516ZM21.1016 1.28516V7H23.1016V1.28516H21.1016Z" fill="#1B1A17"/>
</svg>
